<svg width="16" height="14" viewBox="0 0 16 14" fill="none" xmlns="http://www.w3.org/2000/svg">
<path d="M9.99984 0.333252H3.99984C3.4465 0.333252 2.97317 0.666585 2.77317 1.14659L0.759837 5.84659C0.699837 5.99992 0.666504 6.15992 0.666504 6.33325V7.66659C0.666504 8.39992 1.2665 8.99992 1.99984 8.99992H6.2065L5.57317 12.0466L5.55317 12.2599C5.55317 12.5333 5.6665 12.7866 5.8465 12.9666L6.55317 13.6666L10.9465 9.27325C11.1865 9.03325 11.3332 8.69992 11.3332 8.33325V1.66659C11.3332 0.933252 10.7332 0.333252 9.99984 0.333252ZM12.6665 0.333252V8.33325H15.3332V0.333252H12.6665Z" fill="#1A1718"/>
</svg>
