<svg width="16" height="14" viewBox="0 0 16 14" fill="none" xmlns="http://www.w3.org/2000/svg">
<path d="M5.99984 13.6666H11.9998C12.5532 13.6666 13.0265 13.3333 13.2265 12.8533L15.2398 8.15325C15.2998 7.99992 15.3332 7.83992 15.3332 7.66659V6.33325C15.3332 5.59992 14.7332 4.99992 13.9998 4.99992H9.79317L10.4265 1.95325L10.4465 1.73992C10.4465 1.46659 10.3332 1.21325 10.1532 1.03325L9.4465 0.333252L5.05317 4.72659C4.81317 4.96659 4.6665 5.29992 4.6665 5.66659V12.3333C4.6665 13.0666 5.2665 13.6666 5.99984 13.6666ZM5.99984 5.66659L8.89317 2.77325L7.99984 6.33325H13.9998V7.66659L11.9998 12.3333H5.99984V5.66659ZM0.666504 5.66659H3.33317V13.6666H0.666504V5.66659Z" fill="#797476"/>
</svg>
