<svg width="22" height="20" viewBox="0 0 22 20" fill="none" xmlns="http://www.w3.org/2000/svg">
<path d="M11 3.975C14.79 3.975 18.17 6.105 19.82 9.475C19.23 10.695 18.4 11.745 17.41 12.595L18.82 14.005C20.21 12.775 21.31 11.235 22 9.475C20.27 5.085 16 1.975 11 1.975C9.73 1.975 8.51 2.175 7.36 2.545L9.01 4.195C9.66 4.065 10.32 3.975 11 3.975ZM9.93 5.115L12 7.185C12.57 7.435 13.03 7.895 13.28 8.465L15.35 10.535C15.43 10.195 15.49 9.835 15.49 9.465C15.5 6.985 13.48 4.975 11 4.975C10.63 4.975 10.28 5.025 9.93 5.115ZM1.01 1.845L3.69 4.525C2.06 5.805 0.77 7.505 0 9.475C1.73 13.865 6 16.975 11 16.975C12.52 16.975 13.98 16.685 15.32 16.155L18.74 19.575L20.15 18.165L2.42 0.425003L1.01 1.845ZM8.51 9.345L11.12 11.955C11.08 11.965 11.04 11.975 11 11.975C9.62 11.975 8.5 10.855 8.5 9.475C8.5 9.425 8.51 9.395 8.51 9.345ZM5.11 5.945L6.86 7.695C6.63 8.245 6.5 8.845 6.5 9.475C6.5 11.955 8.52 13.975 11 13.975C11.63 13.975 12.23 13.845 12.77 13.615L13.75 14.595C12.87 14.835 11.95 14.975 11 14.975C7.21 14.975 3.83 12.845 2.18 9.475C2.88 8.045 3.9 6.865 5.11 5.945Z" fill="#1A1718"/>
</svg>
